PathFileType	4	(X/Y/Z)	Walk9.trc
DataRate	CameraRate	NumFrames	NumMarkers	Units	OrigDataRate	OrigDataStartFrame	OrigNumFrames
200.000000	200.000000	8	59	mm	200.000000	492	523
Frame#	Times		RFHD		RACR1		RUA1		RElbowM		RFA1		RWRU		LACR1		LUA1		LFA1		LWRU		RTH1		LTH2		LFHD		LTB2		RBack		RTH2		LTH4		LASI		CLAV		RTH3		RTB3		LCAR		RTB2		RTB1		LWRR		LTH3		RCAR		C7		RTB4		RElbow		RASI		T10		LBHD		LLFC		RWRR		RBHD		STRN		RPSI		LTB4		LToe		LTB1		LTH1		LElbowM		LElbow		LMMAL		RTH4		LPSI		LCAL		RMT5		LTB3		LMT5		LMT1		RLFC		LLMAL		RMT1		RToe		RCAL		RLMAL		RMMAL
			X1	Y1	Z1	X2	Y2	Z2	X3	Y3	Z3	X4	Y4	Z4	X5	Y5	Z5	X6	Y6	Z6	X7	Y7	Z7	X8	Y8	Z8	X9	Y9	Z9	X10	Y10	Z10	X11	Y11	Z11	X12	Y12	Z12	X13	Y13	Z13	X14	Y14	Z14	X15	Y15	Z15	X16	Y16	Z16	X17	Y17	Z17	X18	Y18	Z18	X19	Y19	Z19	X20	Y20	Z20	X21	Y21	Z21	X22	Y22	Z22	X23	Y23	Z23	X24	Y24	Z24	X25	Y25	Z25	X26	Y26	Z26	X27	Y27	Z27	X28	Y28	Z28	X29	Y29	Z29	X30	Y30	Z30	X31	Y31	Z31	X32	Y32	Z32	X33	Y33	Z33	X34	Y34	Z34	X35	Y35	Z35	X36	Y36	Z36	X37	Y37	Z37	X38	Y38	Z38	X39	Y39	Z39	X40	Y40	Z40	X41	Y41	Z41	X42	Y42	Z42	X43	Y43	Z43	X44	Y44	Z44	X45	Y45	Z45	X46	Y46	Z46	X47	Y47	Z47	X48	Y48	Z48	X49	Y49	Z49	X50	Y50	Z50	X51	Y51	Z51	X52	Y52	Z52	X53	Y53	Z53	X54	Y54	Z54	X55	Y55	Z55	X56	Y56	Z56	X57	Y57	Z57	X58	Y58	Z58	X59	Y59	Z59

492	2.46	718.16	1427.9	30.307	611.92	1229.2	143.99	609.49	1090.3	228.99	546.22	930.2	192.01	661.25	848.91	266.67	651.45	749.33	292.22	616.03	1215.6	-221.37	633.11	1051.6	-288.63	675.86	848.38	-332.87	685.89	738.49	-353.46	643.15	650.39	190.77	657.76	582.1	-190.22	729.21	1438.6	-64.91	603.87	211.74	-130.56	498.93	1158.8	82.671	722.94	593.87	155.99	603.56	571.17	-212.37	663.37	825.45	-184.68	692.35	1192.1	-32.379	701.74	490.68	157.2	595.68	163.02	56.245	732.7	699.17	-356.04	608.46	248.33	118.09	697.21	298.33	85.629	730.16	748.56	-309.39	604.56	488.51	-182.69	700.73	695.98	275.74	552.66	1277.5	-36.954	642.75	231.72	70.607	596.09	963.96	264.36	675.64	845.18	144.29	464.2	1078.7	-21.601	599.01	1367.6	-99.01	628.87	396.85	-144.9	680.83	751.78	226.11	585.28	1361.2	34.357	742.76	1086.1	-27.088	421.82	852.73	38.99	623.18	211.34	-71.535	728.63	29.465	-62.359	643.17	296.75	-78.323	602.69	655.71	-233.34	575.13	907.54	-239.31	602.39	933.23	-306.09	575.89	74.281	-18.138	670.33	569.3	175.18	412.7	858.62	-66.155	508.58	44.971	-52.052	568.87	52.822	104.02	611.18	129.05	-66.33	631.71	20.993	-121.69	676.42	33.683	-36.857	690.43	408.44	136.14	551.74	59.263	-96.176	607.83	53.696	24.699	647.97	38.247	67.462	462.35	135.27	26.165	543.97	134.4	2.7148	516.24	131.08	81.135
493	2.465	723.14	1428	30.4	616.92	1229.3	143.93	614.01	1090.5	229.03	550.43	930.55	192.15	665.28	849.09	266.92	655.2	749.56	292.63	621.38	1215.8	-221.34	638.49	1051.9	-288.67	683.59	849.31	-332.05	695.68	739.59	-351.99	648.29	650.64	190.89	661.4	581.67	-190.01	734.26	1438.8	-64.802	605.12	211.47	-130.46	503.95	1158.9	82.48	728.79	595.15	156.02	607.21	570.97	-212.15	667.92	825.26	-184.96	697.42	1192.1	-32.265	708.7	491.73	156.66	609.94	161	56.18	743.35	701.35	-354.1	620.23	246.7	117.86	707.4	299.19	85.069	739.43	750.69	-307.63	607.65	488.36	-182.55	704.5	696.23	276.4	557.76	1277.6	-37.026	654.93	231.07	70.288	600.35	964.28	264.52	680.06	845.55	144.66	469.26	1078.9	-21.889	604.13	1367.6	-99.06	631.3	396.44	-144.78	684.7	751.89	226.57	590.29	1361.2	34.314	747.79	1086	-26.294	426.48	853.17	38.787	624.33	210.96	-71.402	728.75	29.378	-62.318	644.87	296.24	-78.136	606.92	655.56	-233.16	581.26	907.51	-239.41	608.54	933.26	-306.21	576.03	74.26	-17.922	676.42	569.93	174.97	417.51	858.94	-66.23	508.64	45.148	-51.99	586.89	50.529	104.53	611.72	128.73	-66.219	631.7	21.01	-121.65	676.45	33.603	-36.768	698.28	409.27	135.47	551.9	59.344	-96.101	625.73	52.469	25.18	666.41	38.685	67.997	477.39	128.87	26.332	559.12	130.73	2.9194	531.52	126.71	81.347
494	2.47	728.12	1428	30.513	621.93	1229.4	143.87	618.6	1090.7	229.07	554.69	930.87	192.28	669.34	849.26	267.19	658.99	749.78	293.07	626.75	1216	-221.29	643.83	1052.1	-288.72	691.25	850.26	-331.23	705.42	740.75	-350.5	653.4	650.82	191.04	665.06	581.24	-189.78	739.32	1438.9	-64.673	606.4	211.19	-130.36	508.97	1159	82.301	734.56	596.34	156.05	610.89	570.75	-211.94	672.49	825.04	-185.22	702.49	1192.1	-32.134	715.54	492.7	156.07	624.31	158.97	56.167	753.92	703.6	-352.15	631.97	245	117.64	717.43	300.02	84.568	748.63	752.88	-305.86	610.79	488.19	-182.41	708.32	696.47	277.11	562.85	1277.6	-37.087	667.1	230.39	70.02	604.62	964.58	264.69	684.49	845.89	145.01	474.32	1079	-22.157	609.26	1367.7	-99.091	633.77	396.01	-144.66	688.62	751.99	227.08	595.31	1361.2	34.287	752.82	1086	-25.499	431.17	853.53	38.631	625.5	210.57	-71.267	728.87	29.296	-62.28	646.61	295.7	-77.945	611.17	655.4	-232.96	587.37	907.46	-239.49	614.63	933.28	-306.34	576.17	74.245	-17.688	682.43	570.49	174.74	422.33	859.2	-66.257	508.71	45.337	-51.93	605.09	48.275	105.05	612.28	128.4	-66.103	631.69	21.029	-121.6	676.48	33.525	-36.686	705.84	410.02	134.78	552.07	59.431	-96.029	643.79	51.315	25.687	684.93	39.239	68.545	492.76	122.36	26.522	574.48	127	3.1451	547.03	122.27	81.579
495	2.475	733.11	1428	30.646	626.93	1229.4	143.83	623.25	1090.8	229.12	558.98	931.16	192.42	673.43	849.41	267.51	662.82	749.97	293.54	632.13	1216.2	-221.22	649.15	1052.3	-288.79	698.84	851.22	-330.42	715.09	741.96	-348.99	658.49	650.92	191.21	668.75	580.8	-189.55	744.37	1438.9	-64.525	607.71	210.9	-130.25	513.98	1159.1	82.132	740.26	597.43	156.09	614.61	570.51	-211.71	677.08	824.77	-185.44	707.56	1192.1	-31.985	722.23	493.6	155.44	638.79	156.94	56.209	764.4	705.9	-350.16	643.66	243.26	117.44	727.29	300.8	84.123	757.74	755.13	-304.08	613.97	488	-182.27	712.18	696.69	277.86	567.95	1277.6	-37.138	679.24	229.69	69.804	608.9	964.84	264.87	688.94	846.19	145.35	479.38	1079	-22.406	614.39	1367.7	-99.102	636.3	395.57	-144.55	692.61	752.07	227.64	600.33	1361.1	34.276	757.83	1085.9	-24.713	435.91	853.83	38.529	626.7	210.18	-71.129	728.98	29.219	-62.243	648.38	295.15	-77.752	615.42	655.23	-232.74	593.48	907.39	-239.56	620.68	933.27	-306.46	576.29	74.237	-17.437	688.35	570.97	174.5	427.14	859.42	-66.23	508.79	45.539	-51.872	623.48	46.098	105.6	612.85	128.08	-65.983	631.69	21.053	-121.54	676.5	33.45	-36.609	713.1	410.66	134.07	552.25	59.523	-95.96	661.99	50.269	26.219	703.53	39.937	69.106	508.45	115.78	26.745	590.06	123.26	3.3954	562.77	117.8	81.835
496	2.48	738.09	1428	30.801	631.94	1229.4	143.8	627.96	1090.8	229.18	563.32	931.4	192.55	677.54	849.54	267.86	666.68	750.15	294.06	637.51	1216.4	-221.14	654.44	1052.5	-288.87	706.37	852.19	-329.61	724.71	743.21	-347.47	663.55	650.95	191.4	672.47	580.35	-189.31	749.44	1438.9	-64.356	609.05	210.61	-130.15	518.98	1159.1	81.973	745.88	598.39	156.13	618.35	570.25	-211.49	681.69	824.45	-185.62	712.64	1192	-31.821	728.75	494.4	154.76	653.36	154.95	56.304	774.78	708.27	-348.16	655.3	241.47	117.25	736.99	301.56	83.731	766.77	757.41	-302.3	617.19	487.79	-182.12	716.08	696.89	278.66	573.05	1277.6	-37.176	691.34	228.98	69.637	613.2	965.07	265.07	693.42	846.46	145.68	484.45	1079	-22.636	619.53	1367.7	-99.094	638.88	395.1	-144.43	696.66	752.14	228.23	605.35	1361	34.283	762.83	1085.7	-23.947	440.68	854.05	38.485	627.92	209.77	-70.988	729.09	29.148	-62.204	650.19	294.59	-77.558	619.67	655.04	-232.52	599.57	907.28	-239.62	626.7	933.24	-306.58	576.4	74.235	-17.17	694.17	571.37	174.25	431.96	859.59	-66.144	508.88	45.756	-51.816	642.02	44.033	106.16	613.43	127.74	-65.859	631.69	21.082	-121.49	676.52	33.378	-36.537	720.07	411.18	133.33	552.44	59.62	-95.893	680.31	49.366	26.775	722.18	40.808	69.677	524.47	109.18	27.01	605.84	119.53	3.6728	578.74	113.32	82.118
497	2.485	743.08	1428	30.976	636.94	1229.4	143.79	632.71	1090.8	229.25	567.69	931.61	192.7	681.68	849.65	268.26	670.57	750.3	294.6	642.9	1216.5	-221.06	659.72	1052.7	-288.96	713.84	853.16	-328.82	734.25	744.52	-345.92	668.59	650.91	191.62	676.21	579.88	-189.07	754.51	1438.9	-64.168	610.41	210.3	-130.05	523.98	1159.1	81.823	751.42	599.21	156.18	622.11	569.97	-211.25	686.32	824.1	-185.76	717.71	1192	-31.641	735.09	495.09	154.04	668	153.02	56.452	785.05	710.68	-346.13	666.9	239.67	117.09	746.5	302.29	83.386	775.7	759.73	-300.52	620.46	487.55	-181.97	720.02	697.06	279.5	578.15	1277.6	-37.201	703.38	228.28	69.518	617.52	965.27	265.29	697.92	846.68	146	489.52	1079	-22.844	624.67	1367.6	-99.067	641.51	394.62	-144.32	700.77	752.19	228.87	610.36	1360.9	34.308	767.82	1085.6	-23.213	445.5	854.21	38.503	629.17	209.36	-70.844	729.19	29.083	-62.164	652.04	294	-77.365	623.91	654.84	-232.28	605.65	907.15	-239.67	632.67	933.19	-306.7	576.51	74.241	-16.891	699.88	571.69	173.99	436.78	859.73	-65.997	508.98	45.989	-51.761	660.72	42.119	106.75	614.03	127.41	-65.731	631.7	21.116	-121.44	676.54	33.309	-36.469	726.72	411.59	132.56	552.64	59.724	-95.828	698.74	48.641	27.351	740.87	41.884	70.255	540.8	102.59	27.323	621.81	115.85	3.9782	594.93	108.87	82.43
498	2.49	748.06	1427.9	31.172	641.94	1229.3	143.79	637.51	1090.7	229.34	572.1	931.76	192.86	685.85	849.72	268.69	674.5	750.41	295.17	648.29	1216.6	-220.96	664.98	1052.8	-289.05	721.24	854.14	-328.03	743.73	745.86	-344.37	673.61	650.79	191.87	679.98	579.41	-188.83	759.58	1438.8	-63.959	611.8	209.99	-129.94	528.98	1159.1	81.682	756.87	599.89	156.24	625.91	569.67	-211.02	690.96	823.7	-185.85	722.78	1191.8	-31.448	741.23	495.67	153.29	682.7	151.17	56.648	795.21	713.13	-344.09	678.44	237.85	116.95	755.83	303.01	83.081	784.53	762.08	-298.74	623.77	487.3	-181.81	724.01	697.2	280.37	583.26	1277.5	-37.211	715.37	227.61	69.442	621.87	965.42	265.53	702.46	846.85	146.31	494.59	1078.9	-23.031	629.81	1367.5	-99.02	644.19	394.12	-144.2	704.93	752.21	229.54	615.38	1360.8	34.354	772.81	1085.4	-22.52	450.36	854.3	38.587	630.43	208.94	-70.698	729.3	29.023	-62.121	653.93	293.4	-77.175	628.14	654.61	-232.02	611.71	906.98	-239.73	638.61	933.11	-306.82	576.63	74.254	-16.606	705.47	571.9	173.72	441.6	859.83	-65.786	509.09	46.24	-51.705	679.55	40.395	107.35	614.64	127.08	-65.6	631.71	21.155	-121.4	676.57	33.242	-36.405	733.05	411.86	131.78	552.85	59.834	-95.765	717.25	48.129	27.94	759.56	43.191	70.833	557.43	96.049	27.686	637.93	112.26	4.3106	611.32	104.5	82.771
499	2.495	753.05	1427.7	31.389	646.93	1229.2	143.82	642.35	1090.6	229.44	576.55	931.88	193.04	690.04	849.76	269.17	678.46	750.49	295.77	653.67	1216.6	-220.85	670.25	1052.9	-289.14	728.58	855.11	-327.25	753.13	747.23	-342.8	678.6	650.6	192.15	683.77	578.91	-188.59	764.66	1438.7	-63.729	613.22	209.67	-129.84	533.98	1159	81.552	762.23	600.41	156.31	629.72	569.35	-210.78	695.62	823.25	-185.88	727.85	1191.7	-31.244	747.15	496.13	152.5	697.44	149.44	56.886	805.26	715.62	-342.03	689.91	236.03	116.83	764.95	303.71	82.812	793.26	764.44	-296.97	627.12	487.03	-181.65	728.03	697.31	281.27	588.37	1277.4	-37.207	727.27	226.97	69.405	626.24	965.54	265.78	707.05	846.98	146.61	499.66	1078.8	-23.195	634.96	1367.4	-98.954	646.92	393.6	-144.08	709.15	752.2	230.24	620.39	1360.6	34.421	777.78	1085.1	-21.878	455.27	854.33	38.74	631.73	208.5	-70.549	729.4	28.969	-62.074	655.87	292.78	-76.989	632.37	654.37	-231.76	617.75	906.77	-239.79	644.52	933	-306.94	576.76	74.274	-16.325	710.94	572.02	173.45	446.42	859.9	-65.509	509.21	46.511	-51.646	698.47	38.896	107.97	615.27	126.74	-65.468	631.73	21.199	-121.35	676.59	33.178	-36.344	739.07	412	130.99	553.07	59.953	-95.704	735.8	47.863	28.532	778.24	44.756	71.404	574.33	89.607	28.101	654.2	108.78	4.667	627.89	100.23	83.138
